<?xml version="1.0" standalone="no"?><!DOCTYPE svg PUBLIC "-//W3C//DTD SVG 1.1//EN" "http://www.w3.org/Graphics/SVG/1.1/DTD/svg11.dtd"><svg t="1662893866911" class="icon" viewBox="0 0 1024 1024" version="1.1" xmlns="http://www.w3.org/2000/svg" p-id="40309" xmlns:xlink="http://www.w3.org/1999/xlink" width="16" height="16"><path d="M1024 343.04v450.56c0 56.32-46.08 102.4-102.4 102.4H394.24c-30.72 0-51.2-20.48-51.2-51.2 0-15.36 5.12-30.72 15.36-40.96l578.56-501.76c20.48-20.48 51.2-15.36 71.68 5.12 10.24 10.24 15.36 20.48 15.36 35.84z" fill="#5AC8FA" p-id="40310"></path><path d="M92.16 179.2l368.64 307.2c30.72 25.6 71.68 25.6 97.28 0l368.64-307.2H92.16z m-40.96 35.84v578.56c0 30.72 20.48 51.2 51.2 51.2h819.2c30.72 0 51.2-20.48 51.2-51.2v-563.2c0-5.12 0-10.24-5.12-15.36l-378.88 312.32c-46.08 40.96-117.76 40.96-163.84 0L51.2 215.04z m51.2-87.04h819.2c56.32 0 102.4 46.08 102.4 102.4v563.2c0 56.32-46.08 102.4-102.4 102.4H102.4c-56.32 0-102.4-46.08-102.4-102.4v-563.2c0-56.32 46.08-102.4 102.4-102.4z" fill="" p-id="40311"></path></svg>