<?xml version="1.0" standalone="no"?><!DOCTYPE svg PUBLIC "-//W3C//DTD SVG 1.1//EN" "http://www.w3.org/Graphics/SVG/1.1/DTD/svg11.dtd"><svg t="1662891691742" class="icon" viewBox="0 0 1024 1024" version="1.1" xmlns="http://www.w3.org/2000/svg" p-id="26104" xmlns:xlink="http://www.w3.org/1999/xlink" width="16" height="16"><path d="M501.76 533.504m-187.904 0a187.904 187.904 0 1 0 375.808 0 187.904 187.904 0 1 0-375.808 0Z" fill="#CAE4FF" p-id="26105"></path><path d="M867.52256 430.21312l-49.152-17.408c-6.656-2.048-10.24-9.728-8.192-16.384 0-0.512 0.512-1.024 0.512-1.024l22.016-46.592c25.6-54.784 2.048-120.32-52.736-145.92-29.696-13.824-63.488-13.824-93.184 0l-46.592 22.016c-3.584 1.536-7.168 1.536-10.752 0-3.072-1.536-5.632-4.096-7.168-7.68l-17.408-49.152c-20.48-56.832-83.456-86.528-140.288-66.048-30.72 11.264-55.296 35.328-66.048 66.048l-17.408 49.152c-1.024 3.584-3.584 6.144-7.168 7.68-3.584 1.536-7.168 1.536-10.752 0l-46.592-22.016c-54.784-25.6-120.32-2.048-145.92 52.736-13.824 29.696-13.824 63.488 0 93.184l22.016 46.592c3.072 6.656 0 13.824-6.144 16.896-0.512 0-1.024 0.512-1.024 0.512l-49.152 17.408c-56.832 20.48-86.528 83.456-66.048 140.288 11.264 30.72 35.328 55.296 66.048 66.048l49.152 17.408c6.656 2.048 10.24 9.728 8.192 16.384 0 0.512-0.512 1.024-0.512 1.024l-22.016 46.592c-25.6 54.784-2.048 120.32 52.736 145.92 29.696 13.824 63.488 13.824 93.184 0l46.592-22.016c3.584-1.536 7.168-1.536 10.752 0 3.072 1.536 5.632 4.096 7.168 7.68l17.408 49.152c20.48 56.832 83.456 86.528 140.288 66.048 30.72-11.264 55.296-35.328 66.048-66.048l17.408-48.64c2.56-6.656 9.728-10.24 16.384-8.192 0.512 0 0.512 0 1.024 0.512l46.592 22.016c54.784 25.6 120.32 2.048 145.92-52.736 13.824-29.696 13.824-63.488 0-93.184l-22.016-46.592c-3.072-6.656 0-13.824 6.144-16.896 0.512 0 1.024-0.512 1.024-0.512l49.152-17.408c56.832-20.48 86.528-83.456 66.048-140.288-11.264-30.72-35.328-55.296-66.048-66.048v-0.512z m-19.968 152.064l-49.152 17.408c-36.864 13.312-56.32 54.272-43.008 91.136 1.024 2.048 1.536 4.096 2.56 6.656l22.016 46.592c12.288 25.6 1.024 56.32-24.576 68.096a49.92 49.92 0 0 1-43.52 0l-46.592-22.016c-35.328-16.896-77.824-1.536-94.72 33.792-1.024 2.048-2.048 4.096-2.56 6.656l-17.408 48.64c-9.728 26.624-39.424 39.936-66.048 30.208-13.824-5.12-25.088-16.384-30.208-30.208l-17.408-49.152c-13.312-36.864-54.272-56.32-91.136-43.008-2.048 1.024-4.096 1.536-6.656 2.56l-46.592 22.016c-25.6 11.776-56.32 0.512-68.096-25.088-6.144-13.312-6.144-29.184 0-42.496l22.016-46.592c16.896-35.328 1.536-77.824-33.792-94.72-2.048-1.024-4.096-2.048-6.656-2.56l-49.152-17.408c-26.624-9.728-39.936-39.424-30.208-66.048 5.12-13.824 16.384-25.088 30.208-30.208l49.152-17.408c36.864-13.312 56.32-53.76 43.52-91.136-1.024-2.56-2.048-4.608-3.072-7.168l-22.016-46.592c-12.288-25.6-1.024-56.32 24.576-68.096 13.824-6.656 29.696-6.656 43.52 0l46.592 22.016c35.328 16.896 77.824 1.536 94.72-33.792 1.024-2.048 2.048-4.096 2.56-6.656l17.408-49.152c9.728-26.624 39.424-39.936 66.048-30.208 13.824 5.12 25.088 16.384 30.208 30.208l17.408 49.152c13.312 36.864 54.272 56.32 91.136 43.008 2.048-1.024 4.096-1.536 6.656-2.56l46.592-22.016c25.6-12.288 56.32-2.048 68.608 23.552 6.656 14.336 7.168 30.72 0 44.544l-22.016 46.592c-16.896 35.328-1.536 77.824 33.792 94.72 2.048 1.024 4.096 2.048 6.656 2.56l49.152 17.408c26.624 9.728 39.936 39.424 30.208 66.048-5.12 13.824-16.384 25.088-30.208 30.208l-0.512 0.512z" fill="#0972E7" p-id="26106"></path><path d="M500.41856 401.54112c-71.168 0-128.512 57.344-128.512 128.512 0 71.168 57.344 128.512 128.512 128.512 71.168 0 128.512-57.344 128.512-128.512 0-71.168-57.344-128.512-128.512-128.512z m0 206.848c-43.52 0-78.848-35.328-78.848-78.848s35.328-78.848 78.848-78.848 78.848 35.328 78.848 78.848c0 44.032-35.328 78.848-78.848 78.848z" fill="#0972E7" p-id="26107"></path></svg>